<?xml version="1.0" encoding="UTF-8"?>
<svg id="Layer_2" xmlns="http://www.w3.org/2000/svg" version="1.1" viewBox="0 0 1151.774 469.082">
  <!-- Generator: Adobe Illustrator 30.0.0, SVG Export Plug-In . SVG Version: 2.1.1 Build 123)  -->
  <g id="Components">
    <g id="_668172d1-6fed-4c39-b9bf-691987d2c64c_1">
      <path d="M90.495,258.428c0-17.829,11.597-31.539,29.751-31.539,17.991,0,29.589,13.71,29.589,31.539,0,5.744-1.138,10.947-3.415,15.553l-11.271-13.602-19.454,15.715,10.947,13.277c-1.951.488-4.118.65-6.395.65-18.154,0-29.75-13.927-29.75-31.593Z"/>
      <path d="M548.522,169.616L430.496,0,137.045,204.129c24.603,6.394,41.456,26.932,41.456,54.299,0,15.065-5.094,27.962-13.764,37.771l6.882,8.345-19.617,15.715-8.02-9.809c-7.208,2.926-15.228,4.444-23.736,4.444-33.382,0-58.363-23.248-58.363-56.467,0-.65,0-1.355.054-2.005L0,299.466l118.027,169.616,267.752-186.269v-54.461h-30.617v-24.548h89.143v24.548h-30.401v34.899l29.1-20.213v69.852h28.125v-43.352h50.722v-23.844h-50.722v-18.154h51.86v-23.736h-23.627l49.16-34.188h0ZM293.98,268.562c0,27.15-15.553,46.333-50.56,46.333s-50.722-19.346-50.722-46.17v-64.92h28.667v63.945c0,12.952,6.828,22.272,22.055,22.272,15.065,0,21.947-9.321,21.947-22.272v-63.945h28.612v64.757h0ZM341.722,312.89h-28.125v-109.086h28.125v109.086Z"/>
      <path d="M591.053,202.016c-33.381,0-58.417,23.193-58.417,56.412s25.036,56.467,58.417,56.467,58.255-23.248,58.255-56.467-24.873-56.412-58.255-56.412h0ZM591.053,290.021c-18.154,0-29.75-13.927-29.75-31.593,0-17.829,11.597-31.539,29.75-31.539,17.991,0,29.588,13.71,29.588,31.539,0,17.666-11.597,31.593-29.588,31.593Z"/>
      <path d="M734.332,272.843c10.188-3.631,21.785-13.765,21.785-32.731,0-20.267-13.765-36.307-37.933-36.307h-54.678v109.086h28.179v-36.958h14.361l18.316,36.958h32.243l-22.272-40.047h0ZM713.902,252.033h-22.218v-24.494h22.218c7.37,0,13.602,4.714,13.602,12.247s-6.232,12.247-13.602,12.247Z"/>
      <path d="M821.227,289.398v-84.591h-28.125v109.086h71.965v-24.494h-43.84Z"/>
      <path d="M879.59,204.807v109.086h28.179v-109.086h-28.179Z"/>
      <path d="M1007.371,228.542v-23.736h-79.985v109.086h28.125v-43.352h50.722v-23.844h-50.722v-18.154h51.86Z"/>
      <path d="M1102.584,228.542v-23.736h-79.985v109.086h79.985v-23.681h-51.86v-19.671h50.723v-23.844h-50.723v-18.154h51.86Z"/>
      <path d="M1130.598,299.552h-5.57v14.34h-3.371v-14.34h-5.57v-3.005h14.512v3.005Z"/>
      <path d="M1132.768,296.547h4.324l5.179,13.754,5.18-13.754h4.323v17.345h-3.322v-11.408h-.049l-4.446,11.408h-3.371l-4.422-11.408h-.049v11.408h-3.347v-17.345Z"/>
    </g>
  </g>
</svg>