<?xml version="1.0" standalone="no"?>
<!DOCTYPE svg PUBLIC "-//W3C//DTD SVG 1.1//EN" "http://www.w3.org/Graphics/SVG/1.1/DTD/svg11.dtd">
<svg xmlns="http://www.w3.org/2000/svg" id="Layer_2" viewBox="0 0 1151.774 469.0823" width="1151.7740478515625" height="469.0823059082031"><g id="Components"><g id="_668172d1-6fed-4c39-b9bf-691987d2c64c_1"><path d="M90.4953,258.428c0-17.8285,11.5968-31.5389,29.7505-31.5389,17.9909,0,29.5885,13.7103,29.5885,31.5389,0,5.7442-1.1384,10.9466-3.4147,15.5526l-11.2714-13.6015-19.4542,15.715,10.9466,13.2767c-1.9514.4879-4.1185.6503-6.3948.6503-18.1537,0-29.7505-13.927-29.7505-31.5931Z" style="fill:#000; stroke-width:0px;"/><path d="M548.5223,169.6161L430.4956,0,137.0447,204.1293c24.6027,6.3944,41.4558,26.9325,41.4558,54.2986,0,15.0651-5.0939,27.9625-13.7643,37.7709l6.882,8.3452-19.6169,15.7154-8.0201-9.8085c-7.2078,2.9262-15.2278,4.4437-23.7355,4.4437-33.3815,0-58.3632-23.2479-58.3632-56.4667,0-.6503,0-1.3548.0542-2.005L0,299.4662l118.027,169.6161,267.7521-186.2686v-54.4614h-30.6174v-24.5481h89.1431v24.5481h-30.4008v34.8987l29.1003-20.2129v69.8516h28.1249v-43.3524h50.7222v-23.8439h-50.7222v-18.1537h51.8603v-23.7355h-23.627l49.1598-34.1881ZM293.9805,268.5616c0,27.1495-15.5526,46.3331-50.5598,46.3331s-50.7222-19.346-50.7222-46.1704v-64.9201h28.667v63.9447c0,12.9516,6.8277,22.2722,22.0552,22.2722,15.0651,0,21.9474-9.3206,21.9474-22.2722v-63.9447h28.6124v64.7574ZM341.7223,312.8897h-28.1249v-109.0855h28.1249v109.0855Z" style="fill:#000; stroke-width:0px;"/><path d="M591.0527,202.0158c-33.3812,0-58.4172,23.1934-58.4172,56.4121s25.036,56.4667,58.4172,56.4667,58.2548-23.2479,58.2548-56.4667-24.8732-56.4121-58.2548-56.4121ZM591.0527,290.0211c-18.1537,0-29.7505-13.927-29.7505-31.5931,0-17.8285,11.5968-31.5389,29.7505-31.5389,17.9913,0,29.5881,13.7103,29.5881,31.5389,0,17.6661-11.5968,31.5931-29.5881,31.5931Z" style="fill:#000; stroke-width:0px;"/><path d="M734.3323,272.8428c10.1878-3.631,21.7847-13.7646,21.7847-32.7313,0-20.2672-13.7646-36.3074-37.9333-36.3074h-54.6783v109.0855h28.1791v-36.9579h14.3606l18.3161,36.9579h32.2434l-22.2722-40.0468ZM713.9024,252.0335h-22.218v-24.4939h22.218c7.3702,0,13.6019,4.7145,13.6019,12.2468s-6.2317,12.2471-13.6019,12.2471Z" style="fill:#000; stroke-width:0px;"/><path d="M821.227,289.398v-84.5913h-28.1249v109.0855h71.9651v-24.4942h-43.8402Z" style="fill:#000; stroke-width:0px;"/><path d="M879.5902,204.8067v109.0855h28.1791v-109.0855h-28.1791Z" style="fill:#000; stroke-width:0px;"/><path d="M1007.3711,228.5422v-23.7355h-79.9849v109.0855h28.1249v-43.3524h50.7222v-23.8439h-50.7222v-18.1537h51.86Z" style="fill:#000; stroke-width:0px;"/><path d="M1102.5838,228.5422v-23.7355h-79.9849v109.0855h79.9849v-23.6815h-51.8603v-19.6708h50.7225v-23.8439h-50.7225v-18.1537h51.8603Z" style="fill:#000; stroke-width:0px;"/><path d="M1130.5982,299.5523h-5.5703v14.3398h-3.3711v-14.3398h-5.5703v-3.0049h14.5117v3.0049Z" style="fill:#000; stroke-width:0px;"/><path d="M1132.7681,296.5474h4.3242l5.1787,13.7539,5.1797-13.7539h4.3232v17.3447h-3.3223v-11.4082h-.0488l-4.4463,11.4082h-3.3711l-4.4219-11.4082h-.0488v11.4082h-3.3467v-17.3447Z" style="fill:#000; stroke-width:0px;"/></g></g></svg>