<?xml version="1.0" standalone="no"?>
<!DOCTYPE svg PUBLIC "-//W3C//DTD SVG 1.1//EN" "http://www.w3.org/Graphics/SVG/1.1/DTD/svg11.dtd">
<svg xmlns="http://www.w3.org/2000/svg" width="348.5" height="61.5" version="1.1" viewBox="0 0 348.5 61.5">
  <defs>
    <style>
      .cls-1 {
        fill: #f15d3f;
      }
    </style>
  </defs>
  <!-- Generator: Adobe Illustrator 28.6.0, SVG Export Plug-In . SVG Version: 1.2.0 Build 709)  -->
  <g>
    <g id="Layer_1">
      <g>
        <path class="cls-1" d="M88.6,13.6c-8.7,0-16.4,7-16.4,17.1s5,16.3,16.5,16.3,0,0,0,0c4.9,0,8.4-2,8.4-2v1.4h8.6V14.2h-8.3v1.5c0,.1-3.9-2.1-8.8-2.1h0M97.1,36.9c-3,1.4-4.5,2.2-7.7,2.2-4.8,0-8.5-3.7-8.5-8.7s3.6-8.7,8.5-8.7,4.7.8,7.7,2.2v13Z"/>
        <path class="cls-1" d="M121.1,46.7h-8.6V0h8.6v46.7Z"/>
        <path class="cls-1" d="M27.2,30.5c1.4-.7,2.6-1.6,3.6-2.8,2.5-2.7,4.2-6.1,4.2-10.7s-2.8-9.7-5.5-12c-3.5-3-8.5-3.8-12.7-3.8H0v45.5h8.9v-13.9h8.6l8.9,13.9h11.2s-10.4-16.2-10.4-16.2ZM23.7,22.2c-1.2,1.5-3.4,2.1-6.4,2.1h-8.3v-14.7h8.4c3.1,0,5.2.8,6.5,2.4,1.2,1.5,1.8,3.2,1.8,5.1s-.8,3.6-2,5.1Z"/>
        <path class="cls-1" d="M69.1,30c0-8.9-6.3-16.4-15.2-16.4s-15.6,7.8-15.6,16.7,3,12,8.1,14.5c11,5.6,21.4-.8,21.4-.8l-3-6.2s-6,3.7-13,1.5c-2.8-1.2-4.7-3.7-5-6.9h22.2c0-.7,0-1.5,0-2.4ZM47.1,26.2c.4-3,3.4-5.9,7.2-5.9s6.3,2.9,6.6,5.9h-13.8Z"/>
      </g>
      <g>
        <path class="cls-1" d="M190.1,45.4s3.5,2,8.3,2c11.4,0,16.4-9.3,16.4-16.2,0-10.1-7.6-17.1-16.3-17.1s-8.7,2.2-8.7,2.2v-1.5h-8.2v41c2.8,1,5.7,1.9,8.6,2.7v-13.1h-.1ZM190.1,24.2c3-1.4,4.5-2.2,7.7-2.2,4.8,0,8.4,3.7,8.4,8.7s-3.6,8.7-8.4,8.7-4.7-.8-7.7-2.2v-13Z"/>
        <path class="cls-1" d="M305.5,14.1c-8.7,0-16.4,7-16.4,17.1s5,16.3,16.5,16.3,0,0,0,0c4.9,0,8.4-2,8.4-2v1.4h8.6V14.7h-8.3v1.5s-3.9-2.1-8.8-2.1h0M313.9,37.4c-3,1.4-4.5,2.2-7.7,2.2-4.8,0-8.5-3.7-8.5-8.7s3.6-8.7,8.5-8.7,4.7.8,7.7,2.2v13Z"/>
        <path class="cls-1" d="M338.1,47.1h-8.6V.5h8.6v46.6Z"/>
        <path class="cls-1" d="M159.5,1.6h-7.2l-19.4,45.2h9.3l4.4-10.3h18.6l4.4,10.3h9.3L159.5,1.6ZM150,28.6l5.9-13.7,5.9,13.7h-11.8,0Z"/>
        <path class="cls-1" d="M235.6,14.1h0c-4.9,0-8.8,2.2-8.8,2.2v-1.5h-8.3v46.7h8.6v-16s3.5,2,8.4,2c0,0-.2,0,0,0,11.4,0,16.5-9.3,16.5-16.3,0-10.2-7.7-17.1-16.4-17.1M227.1,24.2c3-1.4,4.5-2.2,7.7-2.2,4.8,0,8.5,3.7,8.5,8.7s-3.6,8.7-8.5,8.7-4.7-.8-7.7-2.2v-13Z"/>
        <path class="cls-1" d="M285.8,30.4c0-8.9-6.3-16.4-15.2-16.4s-15.6,7.8-15.6,16.7,3,12,8.1,14.5c11,5.6,21.4-.8,21.4-.8l-3-6.2s-6,3.7-13,1.5c-2.8-1.2-4.7-3.7-5-6.9h22.1c.2-.7.2-1.5.2-2.4ZM263.8,26.6c.4-3,3.4-5.9,7.2-5.9s6.3,2.9,6.6,5.9h-13.8Z"/>
      </g>
      <path class="cls-1" d="M344.4,4.7h.3l.9,1.5h.9l-.9-1.6c.5-.2.9-.6.9-1.2s-.6-1.3-1.4-1.3h-1.5v4.1h.8v-1.5h0ZM344.4,4v-1.2h.5c.5,0,.7.2.7.6s-.3.6-.7.6h-.5ZM341.9,4.2c0-1.7,1.3-3,2.9-3s2.9,1.3,2.9,3-1.3,3-2.9,3-2.9-1.3-2.9-3ZM341.1,4.2c0,2.1,1.6,3.8,3.7,3.8s3.7-1.7,3.7-3.8-1.7-3.7-3.7-3.7-3.7,1.6-3.7,3.7Z"/>
    </g>
  </g>
</svg>